<svg width="23" height="24" viewBox="0 0 23 24" fill="none" xmlns="http://www.w3.org/2000/svg">
<path d="M2.11865 18.0836L1.01246 17.5015C0.808566 17.889 0.822269 18.3549 1.04858 18.7297C1.27489 19.1045 1.68081 19.3336 2.11865 19.3336L2.11865 18.0836ZM21.5339 18.0836V19.3336C21.9717 19.3336 22.3777 19.1045 22.604 18.7297C22.8303 18.3549 22.844 17.889 22.6401 17.5015L21.5339 18.0836ZM5.79556 8.85949C5.79556 5.7885 8.43466 3.19141 11.8263 3.19141V0.691406C7.17584 0.691406 3.29556 4.28897 3.29556 8.85949H5.79556ZM11.8263 3.19141C15.2179 3.19141 17.857 5.7885 17.857 8.85949H20.357C20.357 4.28897 16.4767 0.691406 11.8263 0.691406V3.19141ZM3.29556 8.85949C3.29556 10.9665 2.73681 13.1219 2.15258 14.7873C1.86326 15.612 1.57405 16.2988 1.3584 16.777C1.25072 17.0157 1.1618 17.2015 1.10095 17.3254C1.07053 17.3873 1.04717 17.4337 1.03202 17.4634C1.02445 17.4783 1.01893 17.489 1.01562 17.4954C1.01397 17.4986 1.01286 17.5007 1.01233 17.5017C1.01206 17.5022 1.01194 17.5025 1.01196 17.5024C1.01197 17.5024 1.01201 17.5023 1.0121 17.5022C1.01214 17.5021 1.01223 17.5019 1.01225 17.5019C1.01235 17.5017 1.01246 17.5015 2.11865 18.0836C3.22485 18.6657 3.22497 18.6654 3.22511 18.6652C3.22517 18.6651 3.22531 18.6648 3.22543 18.6646C3.22566 18.6641 3.22593 18.6636 3.22623 18.663C3.22684 18.6619 3.22759 18.6604 3.22849 18.6587C3.23029 18.6553 3.23267 18.6507 3.23561 18.645C3.24148 18.6337 3.24959 18.6179 3.2598 18.5979C3.2802 18.5578 3.30897 18.5006 3.34492 18.4275C3.41679 18.2811 3.51747 18.0705 3.63732 17.8048C3.87671 17.2741 4.19422 16.5196 4.51163 15.6148C5.14085 13.8212 5.79556 11.3645 5.79556 8.85949H3.29556ZM2.11865 19.3336H21.5339V16.8336H2.11865V19.3336ZM21.5339 18.0836C22.6401 17.5015 22.6402 17.5017 22.6403 17.5019C22.6403 17.5019 22.6404 17.5021 22.6405 17.5022C22.6405 17.5023 22.6406 17.5024 22.6406 17.5024C22.6406 17.5025 22.6405 17.5022 22.6402 17.5017C22.6397 17.5007 22.6386 17.4986 22.6369 17.4954C22.6336 17.489 22.6281 17.4783 22.6205 17.4634C22.6054 17.4337 22.582 17.3873 22.5516 17.3254C22.4908 17.2015 22.4018 17.0157 22.2942 16.777C22.0785 16.2988 21.7893 15.612 21.5 14.7873C20.9157 13.1219 20.357 10.9665 20.357 8.85949H17.857C17.857 11.3645 18.5117 13.8212 19.1409 15.6148C19.4583 16.5196 19.7758 17.2741 20.0152 17.8048C20.1351 18.0705 20.2358 18.2811 20.3076 18.4275C20.3436 18.5006 20.3724 18.5578 20.3928 18.5979C20.403 18.6179 20.4111 18.6337 20.417 18.645C20.4199 18.6507 20.4223 18.6553 20.4241 18.6587C20.425 18.6604 20.4257 18.6619 20.4263 18.663C20.4266 18.6636 20.4269 18.6641 20.4271 18.6646C20.4272 18.6648 20.4274 18.6651 20.4274 18.6652C20.4276 18.6654 20.4277 18.6657 21.5339 18.0836ZM14.2166 19.2366C14.2166 20.3972 13.2074 21.4456 11.8263 21.4456V23.9456C14.4662 23.9456 16.7166 21.8967 16.7166 19.2366H14.2166ZM11.8263 21.4456C10.4452 21.4456 9.43592 20.3972 9.43592 19.2366H6.93592C6.93592 21.8967 9.18636 23.9456 11.8263 23.9456V21.4456ZM9.43592 19.2366V18.0836H6.93592V19.2366H9.43592ZM16.7166 19.2366V18.0836H14.2166V19.2366H16.7166Z" fill="#FD9526"/>
</svg>
