<svg width="27" height="24" viewBox="0 0 27 24" fill="none" xmlns="http://www.w3.org/2000/svg">
<path d="M19.9314 17.4566C18.5691 17.4566 17.4648 18.4891 17.4648 19.7627C17.4648 21.0362 18.5691 22.0687 19.9314 22.0687C21.2936 22.0687 22.3979 21.0362 22.3979 19.7627C22.3979 18.4891 21.2936 17.4566 19.9314 17.4566ZM19.9314 17.4566H8.0516C7.43786 17.4566 6.91751 17.0347 6.83072 16.4667L6.45344 13.9976M1.43225 1.31445H4.51544L4.8678 3.62048M4.8678 3.62048H5.13207H24.8645L21.1646 13.9976H6.98198H6.45344M4.8678 3.62048L6.45344 13.9976M12.5317 19.7627C12.5317 21.0362 11.4274 22.0687 10.0652 22.0687C8.70293 22.0687 7.59862 21.0362 7.59862 19.7627C7.59862 18.4891 8.70293 17.4566 10.0652 17.4566C11.4274 17.4566 12.5317 18.4891 12.5317 19.7627Z" stroke="#FD9526" stroke-width="2.5" stroke-linecap="round" stroke-linejoin="round"/>
</svg>
