<svg width="161" height="48" viewBox="0 0 161 48" fill="none" xmlns="http://www.w3.org/2000/svg">
<path d="M62.7997 19.1514V22.1722H68.0662V25.0886H62.7997V30.7791H59.5513V16.1289H68.5086V19.1497H62.7997V19.1514Z" fill="#FD9526"/>
<path d="M70.6218 30.7791V16.1289H73.9283V30.7791H70.6218Z" fill="#FD9526"/>
<path d="M76.7329 30.7791V16.1289H80.0394V27.6957H85.306V30.7791H76.7329Z" fill="#FD9526"/>
<path d="M99.1826 30.7791L99.26 20.4132H99.2019L95.6645 30.7791H93.3574L89.9168 20.4132H89.8587L89.9362 30.7791H86.8412V16.1289H91.512L94.607 25.5232H94.6845L97.6439 16.1289H102.391V30.7791H99.1826Z" fill="#FD9526"/>
<path d="M109.964 30.7791H108.581V17.4533H104.026V16.1289H114.521V17.4533H109.964V30.7791Z" fill="#FD9526"/>
<path d="M122.343 31.1517C118.287 31.1517 115.25 27.9032 115.25 23.4538C115.25 19.0043 118.287 15.7559 122.343 15.7559C126.398 15.7559 129.435 19.0043 129.435 23.4538C129.435 27.9032 126.397 31.1517 122.343 31.1517ZM122.343 17.0611C118.844 17.0611 116.711 20.0402 116.711 23.4555C116.711 26.8708 118.844 29.829 122.343 29.829C125.841 29.829 127.974 26.8708 127.974 23.4555C127.974 20.0402 125.84 17.0611 122.343 17.0611Z" fill="#FD9526"/>
<path d="M141.966 28.6065H142.004V16.1289H143.388V30.7791H141.659L133.74 18.1781H133.701V30.7791H132.317V16.1289H134.047L141.966 28.6065Z" fill="#FD9526"/>
<path d="M153.364 31.1517C149.308 31.1517 146.271 27.9032 146.271 23.4538C146.271 19.0043 149.308 15.7559 153.364 15.7559C157.42 15.7559 160.456 19.0043 160.456 23.4538C160.455 27.9032 157.42 31.1517 153.364 31.1517ZM153.364 17.0611C149.865 17.0611 147.733 20.0402 147.733 23.4555C147.733 26.8708 149.865 29.829 153.364 29.829C156.863 29.829 158.995 26.8708 158.995 23.4555C158.995 20.0402 156.861 17.0611 153.364 17.0611Z" fill="#FD9526"/>
<path opacity="0.2" d="M35.5 26C34.1198 26 33 24.7652 33 23.2423V7.75774C33 6.23481 34.1198 5 35.5 5C36.8802 5 38 6.23481 38 7.75774V23.2423C38 24.7652 36.8818 26 35.5 26Z" fill="#FD9526"/>
<path opacity="0.2" d="M13.5 43C12.1198 43 11 41.7652 11 40.2423V24.7577C11 23.2348 12.1198 22 13.5 22C14.8802 22 16 23.2348 16 24.7577V40.2423C15.9984 41.7668 14.8802 43 13.5 43Z" fill="#FD9526"/>
<path d="M46.5 27C45.1198 27 44 25.8806 44 24.5C44 23.1194 45.1198 22 46.5 22C47.8802 22 49 23.1194 49 24.5C49 25.8806 47.8802 27 46.5 27Z" fill="#FD9526"/>
<path d="M2.5 26C1.11978 26 0 24.8806 0 23.5C0 22.1194 1.11978 21 2.5 21C3.88022 21 5 22.1194 5 23.5C5 24.8806 3.88022 26 2.5 26Z" fill="#FD9526"/>
<path opacity="0.5" d="M24.5 32C23.1198 32 22 30.7241 22 29.1505V2.84955C22 1.27592 23.1198 0 24.5 0C25.8802 0 27 1.27592 27 2.84955V29.1505C27 30.7241 25.8802 32 24.5 32Z" fill="#FD9526"/>
<path opacity="0.2" d="M24.5 48C23.1198 48 22 46.7241 22 45.1505V18.8495C22 17.2759 23.1198 16 24.5 16C25.8802 16 27 17.2759 27 18.8495V45.1505C27 46.7241 25.8802 48 24.5 48Z" fill="#FD9526"/>
<path opacity="0.5" d="M35.5 43C34.1198 43 33 41.7652 33 40.2423V24.7577C33 23.2348 34.1198 22 35.5 22C36.8802 22 38 23.2348 38 24.7577V40.2423C38 41.7668 36.8818 43 35.5 43Z" fill="#FD9526"/>
<path opacity="0.5" d="M13.5 26C12.1198 26 11 24.7652 11 23.2423V7.75774C11 6.23481 12.1198 5 13.5 5C14.8802 5 16 6.23481 16 7.75774V23.2423C15.9984 24.7652 14.8802 26 13.5 26Z" fill="#FD9526"/>
</svg>
