<svg width="24" height="23" viewBox="0 0 24 23" fill="none" xmlns="http://www.w3.org/2000/svg">
<path d="M21.1391 21.9062C21.6396 22.3817 22.4308 22.3614 22.9062 21.8609C23.3817 21.3604 23.3614 20.5692 22.8609 20.0938L21.1391 21.9062ZM18.3971 10.3824C18.3971 14.2618 15.0675 17.5147 10.8235 17.5147V20.0147C16.3258 20.0147 20.8971 15.7618 20.8971 10.3824H18.3971ZM10.8235 17.5147C6.57959 17.5147 3.25 14.2618 3.25 10.3824H0.75C0.75 15.7618 5.32126 20.0147 10.8235 20.0147V17.5147ZM3.25 10.3824C3.25 6.50291 6.57959 3.25 10.8235 3.25V0.75C5.32126 0.75 0.75 5.00291 0.75 10.3824H3.25ZM10.8235 3.25C15.0675 3.25 18.3971 6.50291 18.3971 10.3824H20.8971C20.8971 5.00291 16.3258 0.75 10.8235 0.75V3.25ZM22.8609 20.0938L17.9344 15.4135L16.2125 17.226L21.1391 21.9062L22.8609 20.0938Z" fill="#C7C7C7"/>
</svg>
