<svg width="24" height="23" viewBox="0 0 24 23" fill="none" xmlns="http://www.w3.org/2000/svg">
<path d="M21.6646 22.3385C22.1607 22.8186 22.9521 22.8056 23.4322 22.3095C23.9122 21.8134 23.8993 21.022 23.4032 20.542L21.6646 22.3385ZM18.8422 10.2164C18.8422 14.3815 15.3414 17.8273 10.9359 17.8273V20.3273C16.6442 20.3273 21.3422 15.8388 21.3422 10.2164H18.8422ZM10.9359 17.8273C6.53047 17.8273 3.02966 14.3815 3.02966 10.2164H0.529663C0.529663 15.8388 5.22767 20.3273 10.9359 20.3273V17.8273ZM3.02966 10.2164C3.02966 6.05131 6.53047 2.60547 10.9359 2.60547V0.105469C5.22767 0.105469 0.529663 4.59396 0.529663 10.2164H3.02966ZM10.9359 2.60547C15.3414 2.60547 18.8422 6.05131 18.8422 10.2164H21.3422C21.3422 4.59396 16.6442 0.105469 10.9359 0.105469V2.60547ZM23.4032 20.542L18.2908 15.5945L16.5523 17.391L21.6646 22.3385L23.4032 20.542Z" fill="#FD9526"/>
</svg>
