<svg width="23" height="24" fill="none" xmlns="http://www.w3.org/2000/svg"><path d="m2.119 18.084-1.107-.582a1.25 1.25 0 0 0 1.107 1.832v-1.25Zm19.415 0v1.25a1.25 1.25 0 0 0 1.106-1.832l-1.106.582ZM5.796 8.859c0-3.07 2.639-5.668 6.03-5.668v-2.5c-4.65 0-8.53 3.598-8.53 8.168h2.5Zm6.03-5.668c3.392 0 6.031 2.598 6.031 5.668h2.5c0-4.57-3.88-8.168-8.53-8.168v2.5ZM3.296 8.86c0 2.107-.56 4.263-1.143 5.928-.29.825-.579 1.512-.795 1.99a18.685 18.685 0 0 1-.346.725l1.107.582 1.106.581.001-.002.002-.004a1.593 1.593 0 0 0 .032-.061l.085-.17a27.59 27.59 0 0 0 1.167-2.813c.629-1.794 1.284-4.25 1.284-6.756h-2.5ZM2.119 19.334h19.415v-2.5H2.119v2.5Zm19.415-1.25a339.741 339.741 0 0 1 1.107-.582 25.088 25.088 0 0 1-1.14-2.714c-.585-1.666-1.144-3.822-1.144-5.929h-2.5c0 2.505.655 4.962 1.284 6.756.317.905.635 1.66.874 2.19a21.576 21.576 0 0 0 .41.854l.001.004.001.002 1.107-.581Zm-7.317 1.153c0 1.16-1.01 2.209-2.39 2.209v2.5c2.64 0 4.89-2.05 4.89-4.71h-2.5Zm-2.39 2.209c-1.382 0-2.391-1.049-2.391-2.21h-2.5c0 2.66 2.25 4.71 4.89 4.71v-2.5Zm-2.391-2.21v-1.152h-2.5v1.153h2.5Zm7.28 0v-1.152h-2.5v1.153h2.5Z" fill="#FD9526"/></svg>