<svg width="27" height="24" fill="none" xmlns="http://www.w3.org/2000/svg"><path d="M19.931 17.457c-1.362 0-2.466 1.032-2.466 2.306 0 1.273 1.104 2.306 2.466 2.306 1.363 0 2.467-1.033 2.467-2.306 0-1.274-1.104-2.306-2.467-2.306Zm0 0H8.051c-.613 0-1.133-.422-1.22-.99l-.378-2.47M1.433 1.315h3.082l.353 2.306m0 0h19.997l-3.7 10.378H6.453M4.868 3.62l1.585 10.378m6.079 5.765c0 1.273-1.105 2.306-2.467 2.306S7.6 21.036 7.6 19.763c0-1.274 1.104-2.306 2.466-2.306s2.467 1.032 2.467 2.306Z" stroke="#FD9526" stroke-width="2.5" stroke-linecap="round" stroke-linejoin="round"/></svg>