<?xml version="1.0" encoding="UTF-8"?><svg xmlns="http://www.w3.org/2000/svg" viewBox="0 0 302.09 217.06"><defs><style>.d{fill:#fd9526;}</style></defs><g id="a"/><g id="b"><g id="c"><path class="d" d="M211.02,144.24c3.91-11.19,6.04-23.21,6.04-35.71s-2.13-24.52-6.04-35.7c-.09-.33-.21-.66-.34-.98C195.6,30,155.51,0,108.53,0S21.46,30,6.39,71.85c-.14,.31-.25,.64-.34,.98C2.13,84.01,0,96.03,0,108.53s2.13,24.52,6.04,35.71c.1,.33,.21,.66,.34,.98,15.08,41.85,55.17,71.85,102.14,71.85s87.07-30,102.14-71.85c.14-.31,.25-.64,.34-.98h0Zm-102.49,57.27c-4.13,0-10.8-7.48-16.37-24.19-2.69-8.06-4.84-17.34-6.41-27.42h45.55c-1.56,10.08-3.72,19.35-6.41,27.42-5.57,16.71-12.24,24.19-16.37,24.19h0Zm-24.66-67.17c-.75-8.29-1.14-16.95-1.14-25.81s.39-17.51,1.14-25.8h49.33c.75,8.29,1.14,16.94,1.14,25.8s-.39,17.51-1.14,25.81h-49.33ZM15.56,108.53c0-8.95,1.27-17.61,3.65-25.8h49.06c-.73,8.47-1.1,17.14-1.1,25.8s.37,17.34,1.1,25.81H19.2c-2.38-8.2-3.65-16.85-3.65-25.81h0ZM108.53,15.56c4.13,0,10.8,7.48,16.37,24.19,2.69,8.06,4.84,17.34,6.41,27.42h-45.55c1.56-10.09,3.72-19.36,6.41-27.42,5.57-16.71,12.23-24.19,16.37-24.19h0Zm40.27,67.17h49.06c2.37,8.19,3.65,16.85,3.65,25.8s-1.28,17.61-3.65,25.81h-49.06c.73-8.47,1.09-17.14,1.09-25.81s-.36-17.34-1.09-25.8h0Zm42.98-15.56h-44.76c-2.77-19.08-7.52-36.2-14.18-48.38,25.82,7,47.21,24.87,58.94,48.38h0ZM84.22,18.79c-6.66,12.18-11.41,29.3-14.18,48.38H25.28c11.73-23.51,33.12-41.38,58.94-48.38h0ZM25.28,149.89h44.76c2.77,19.08,7.52,36.2,14.18,48.38-25.82-7-47.21-24.87-58.94-48.38h0Zm107.56,48.38c6.66-12.18,11.41-29.3,14.18-48.38h44.76c-11.73,23.51-33.12,41.38-58.94,48.38h0Z"/><path class="d" d="M234.6,117.04c-3.3-4.26,.79-9.6,7.36-9.62l25.79-.07,25.79-.07c6.57-.02,10.69,5.3,7.41,9.57l-12.85,16.79-12.85,16.79c-3.27,4.27-11.48,4.3-14.77,.04l-12.94-16.71-12.94-16.71Z"/></g></g></svg>