<svg width="161" height="48" fill="none" xmlns="http://www.w3.org/2000/svg"><path d="M62.8 19.151v3.021h5.266v2.917H62.8v5.69H59.55V16.13h8.958v3.02h-5.71v.002ZM70.622 30.78V16.128h3.306v14.65h-3.306ZM76.733 30.78V16.128h3.306v11.567h5.267v3.083h-8.573ZM99.183 30.78l.077-10.367h-.058L95.665 30.78h-2.308l-3.44-10.366h-.058l.077 10.366h-3.095V16.13h4.671l3.095 9.394h.078l2.959-9.394h4.747v14.65h-3.208ZM109.964 30.78h-1.383V17.452h-4.555V16.13h10.495v1.324h-4.557V30.78ZM122.343 31.152c-4.056 0-7.093-3.249-7.093-7.698 0-4.45 3.037-7.698 7.093-7.698 4.055 0 7.092 3.248 7.092 7.698s-3.038 7.698-7.092 7.698Zm0-14.09c-3.499 0-5.632 2.978-5.632 6.393 0 3.416 2.133 6.374 5.632 6.374 3.498 0 5.631-2.958 5.631-6.373 0-3.416-2.134-6.395-5.631-6.395ZM141.966 28.607h.038V16.129h1.384v14.65h-1.729l-7.919-12.6h-.039v12.6h-1.384V16.13h1.73l7.919 12.477ZM153.364 31.152c-4.056 0-7.093-3.249-7.093-7.698 0-4.45 3.037-7.698 7.093-7.698s7.092 3.248 7.092 7.698c-.001 4.45-3.036 7.698-7.092 7.698Zm0-14.09c-3.499 0-5.631 2.978-5.631 6.393 0 3.416 2.132 6.374 5.631 6.374s5.631-2.958 5.631-6.373c0-3.416-2.134-6.395-5.631-6.395Z" fill="#FD9526"/><path opacity=".2" d="M35.5 26c-1.38 0-2.5-1.235-2.5-2.758V7.758C33 6.235 34.12 5 35.5 5S38 6.235 38 7.758v15.484C38 24.765 36.882 26 35.5 26ZM13.5 43c-1.38 0-2.5-1.235-2.5-2.758V24.758C11 23.235 12.12 22 13.5 22s2.5 1.235 2.5 2.758v15.484C15.998 41.767 14.88 43 13.5 43Z" fill="#FD9526"/><path d="M46.5 27a2.5 2.5 0 1 1 0-5 2.5 2.5 0 0 1 0 5ZM2.5 26a2.5 2.5 0 1 1 0-5 2.5 2.5 0 0 1 0 5Z" fill="#FD9526"/><path opacity=".5" d="M24.5 32c-1.38 0-2.5-1.276-2.5-2.85V2.85C22 1.276 23.12 0 24.5 0S27 1.276 27 2.85v26.3c0 1.574-1.12 2.85-2.5 2.85Z" fill="#FD9526"/><path opacity=".2" d="M24.5 48c-1.38 0-2.5-1.276-2.5-2.85v-26.3c0-1.574 1.12-2.85 2.5-2.85s2.5 1.276 2.5 2.85v26.3c0 1.574-1.12 2.85-2.5 2.85Z" fill="#FD9526"/><path opacity=".5" d="M35.5 43c-1.38 0-2.5-1.235-2.5-2.758V24.758C33 23.235 34.12 22 35.5 22s2.5 1.235 2.5 2.758v15.484C38 41.767 36.882 43 35.5 43ZM13.5 26c-1.38 0-2.5-1.235-2.5-2.758V7.758C11 6.235 12.12 5 13.5 5S16 6.235 16 7.758v15.484C15.998 24.765 14.88 26 13.5 26Z" fill="#FD9526"/></svg>