<svg width="24" height="23" fill="none" xmlns="http://www.w3.org/2000/svg"><path d="M21.14 21.906a1.25 1.25 0 1 0 1.72-1.812l-1.72 1.812Zm-2.743-11.524c0 3.88-3.33 7.133-7.573 7.133v2.5c5.502 0 10.073-4.253 10.073-9.633h-2.5Zm-7.573 7.133c-4.244 0-7.574-3.253-7.574-7.133H.75c0 5.38 4.571 9.633 10.073 9.633v-2.5ZM3.25 10.382c0-3.88 3.33-7.132 7.573-7.132V.75C5.321.75.75 5.003.75 10.382h2.5Zm7.573-7.132c4.245 0 7.574 3.253 7.574 7.132h2.5c0-5.38-4.571-9.632-10.073-9.632v2.5Zm12.038 16.844-4.927-4.68-1.722 1.812 4.927 4.68 1.722-1.812Z" fill="#C7C7C7"/></svg>