<svg width="24" height="23" fill="none" xmlns="http://www.w3.org/2000/svg"><path d="M21.665 22.338a1.25 1.25 0 0 0 1.738-1.796l-1.738 1.796Zm-2.823-12.122c0 4.166-3.5 7.611-7.906 7.611v2.5c5.708 0 10.406-4.488 10.406-10.11h-2.5Zm-7.906 7.611c-4.406 0-7.906-3.446-7.906-7.61H.53c0 5.622 4.698 10.11 10.406 10.11v-2.5Zm-7.906-7.61c0-4.166 3.5-7.612 7.906-7.612v-2.5C5.228.105.53 4.594.53 10.216h2.5Zm7.906-7.612c4.405 0 7.906 3.446 7.906 7.611h2.5c0-5.622-4.698-10.11-10.406-10.11v2.5Zm12.467 17.937-5.112-4.948-1.739 1.797 5.113 4.948 1.738-1.797Z" fill="#FD9526"/></svg>